<svg id="Слой_1" viewBox="0 0 128 128" xmlns="http://www.w3.org/2000/svg">
  <circle cx="64" cy="64" fill="#EEF1BD" r="62"/>
  <path d="M94.7 17.3c-6.9 0-13 3-17.2 7.8-4.2-4.8-10.4-7.8-17.2-7.8-12.7 0-23 10.3-23 23 0 7.2 3.3 13.6 8.5 17.8l31.8 25.1 31.2-24.6c5.5-4.2 9.1-10.8 9.1-18.3-.2-12.7-10.5-23-23.2-23z" fill="#F37C87"/>
  <path d="M54.6 58.2c-4.7-5.2-8.5-10.6-8.5-17.8 0-11.2 8-20.5 18.5-22.6-1.4-.3-2.9-.4-4.5-.4-12.7 0-23 10.3-23 23 0 7.2 3.3 13.6 8.5 17.8l31.8 25.1-22.8-25.1z" fill="#FDFDFE"/>
  <path d="M94.7 23.6c9.2 0 16.7 7.5 16.7 16.7" fill="none" opacity=".8" stroke="#FFF" stroke-linecap="round" stroke-linejoin="round" stroke-miterlimit="10" stroke-width="5"/>
  <path d="M110.3 96.7L88 104.4c.7-1.1 1.1-2.4 1-3.8-.3-3.1-3-5.4-6.1-5.4h-16c-6.2-9-22.9-9-22.9-9H30.4v27.2l31.6 10s9.5 2.8 16.4 0c5.8-2.4 29.2-14.9 36.6-18.8 1.4-.8 3.4-3 2.3-5.5-.8-2.2-2.6-3.7-7-2.4z" fill="#E7B495"/>
  <path d="M83 102.6H64.2c-2.5 0-4.5 2-4.5 4.5H83c3.3 0 5.9-2.7 5.9-5.9 0-.4-.1-2.8-.1-3.2-.5 2.6-2.9 4.6-5.8 4.6zM35.8 114.4V86.2h-5.4v27.2l5.3 1.7c.1-.2.1-.5.1-.7z" fill="#FDFDFE"/>
  <path d="M30.4 114.4V85.5c0-1.9-1.6-3.5-3.5-3.5H11.2c-.4 0-.7.1-.9.2v.5c0 12.9 3.7 25 10.2 35.2H27c1.9 0 3.4-1.6 3.4-3.5z" fill="#F5F1E3"/>
  <path d="M94.7 16c-6.5 0-12.7 2.6-17.2 7.2-4.6-4.6-10.9-7.2-17.3-7.2-13.4 0-24.3 10.9-24.3 24.3 0 7.3 3.2 14.1 8.9 18.8l.1.1 31.8 25.1c.2.2.5.3.8.3s.6-.1.8-.3l31.2-24.6c.1 0 .1-.1.2-.2 6-4.7 9.4-11.6 9.4-19.2-.1-13.4-11-24.3-24.4-24.3zm13.1 41.6l-.2.2-30.2 23.8-30.8-24.4s-.1 0-.1-.1c-5.1-4.1-8-10.3-8-16.8 0-11.9 9.7-21.7 21.7-21.7 6.2 0 12.1 2.7 16.2 7.4.5.6 1.5.6 2 0 4.1-4.7 10-7.4 16.2-7.4 11.9 0 21.7 9.7 21.7 21.7 0 6.8-3.1 13.1-8.5 17.3zM20.5 119.2H27c2.4 0 4.3-1.7 4.7-4l30 9.5c.2.1 4.5 1.3 9.5 1.3 3 0 5.6-.5 7.8-1.4 5.9-2.4 29.6-15.1 36.7-18.9 1.9-1 4.3-3.9 2.9-7.2-1-2.4-2.8-3.6-5.4-3.6-1 0-2.1.2-3.4.5l-19.6 6.8v-.2-.4-.4-.1-.3-.3-.1-.1c0-.2-.1-.4-.1-.6v-.1-.1c-.7-3.2-3.8-5.7-7.3-5.7H67.5c-6.8-8.9-22.9-9-23.6-9H31.8c-.3-2.4-2.3-4.3-4.8-4.3H11.2c-.6 0-1.1.1-1.5.4-.4.3-.7.8-.7 1.2v.5c0 12.7 3.6 25.2 10.4 35.9.2.5.6.7 1.1.7zm11.3-31.6h12.1c.2 0 16.1.1 21.8 8.4.3.4.7.6 1.1.6h16c2.5 0 4.6 1.8 4.8 4.1V101.3c0 .2 0 .4-.1.6v.3c0 .2-.1.4-.2.6 0 .1 0 .1-.1.2-.7 1.6-2.3 2.8-4.2 2.8H59.8c-.7 0-1.3.6-1.3 1.3s.6 1.3 1.3 1.3H83c2.4 0 4.4-1.1 5.8-2.9l21.8-7.6c1-.3 1.9-.4 2.6-.4 1.5 0 2.3.6 2.9 2 .7 1.8-.8 3.4-1.7 3.8-7.1 3.8-30.7 16.4-36.4 18.8-1.9.8-4.2 1.2-6.8 1.2-4.6 0-8.7-1.2-8.7-1.2l-30.7-9.7V87.6zM27 83.3c1.2 0 2.1 1 2.1 2.1v29c0 1.2-1 2.1-2.1 2.1h-5.7c-6.1-10-9.4-21.5-9.6-33.2H27z" fill="#62345B"/>
</svg>
